<mxfile host="app.diagrams.net" modified="2024-03-19T13:05:56.972Z" agent="Mozilla/5.0 (Windows NT 10.0; Win64; x64) AppleWebKit/537.36 (KHTML, like Gecko) Chrome/122.0.0.0 Safari/537.36 Edg/122.0.0.0" etag="cO0NGz89vBrdV_puWtjT" version="24.0.6" type="github">
  <diagram name="第 1 页" id="mC2ziE_ytfc_KVBTiNdl">
    <mxGraphModel dx="1213" dy="665" grid="1" gridSize="10" guides="1" tooltips="1" connect="1" arrows="1" fold="1" page="1" pageScale="1" pageWidth="827" pageHeight="1169" math="0" shadow="0">
      <root>
        <mxCell id="0" />
        <mxCell id="1" parent="0" />
        <mxCell id="OMz8p0DZNnFDRw0FYKge-3" style="edgeStyle=orthogonalEdgeStyle;rounded=0;orthogonalLoop=1;jettySize=auto;html=1;" edge="1" parent="1" source="OMz8p0DZNnFDRw0FYKge-1" target="OMz8p0DZNnFDRw0FYKge-2">
          <mxGeometry relative="1" as="geometry" />
        </mxCell>
        <mxCell id="OMz8p0DZNnFDRw0FYKge-1" value="开始" style="strokeWidth=2;html=1;shape=mxgraph.flowchart.start_2;whiteSpace=wrap;" vertex="1" parent="1">
          <mxGeometry x="160" y="70" width="100" height="100" as="geometry" />
        </mxCell>
        <mxCell id="OMz8p0DZNnFDRw0FYKge-5" style="edgeStyle=orthogonalEdgeStyle;rounded=0;orthogonalLoop=1;jettySize=auto;html=1;" edge="1" parent="1" source="OMz8p0DZNnFDRw0FYKge-2" target="OMz8p0DZNnFDRw0FYKge-4">
          <mxGeometry relative="1" as="geometry" />
        </mxCell>
        <mxCell id="OMz8p0DZNnFDRw0FYKge-2" value="输入用户名密码登录" style="rounded=1;whiteSpace=wrap;html=1;absoluteArcSize=1;arcSize=14;strokeWidth=2;" vertex="1" parent="1">
          <mxGeometry x="160" y="230" width="100" height="100" as="geometry" />
        </mxCell>
        <mxCell id="OMz8p0DZNnFDRw0FYKge-7" style="edgeStyle=orthogonalEdgeStyle;rounded=0;orthogonalLoop=1;jettySize=auto;html=1;" edge="1" parent="1" source="OMz8p0DZNnFDRw0FYKge-4" target="OMz8p0DZNnFDRw0FYKge-6">
          <mxGeometry relative="1" as="geometry" />
        </mxCell>
        <mxCell id="OMz8p0DZNnFDRw0FYKge-10" value="是" style="edgeLabel;html=1;align=center;verticalAlign=middle;resizable=0;points=[];" vertex="1" connectable="0" parent="OMz8p0DZNnFDRw0FYKge-7">
          <mxGeometry x="-0.4" y="-2" relative="1" as="geometry">
            <mxPoint x="22" y="2" as="offset" />
          </mxGeometry>
        </mxCell>
        <mxCell id="OMz8p0DZNnFDRw0FYKge-12" style="edgeStyle=orthogonalEdgeStyle;rounded=0;orthogonalLoop=1;jettySize=auto;html=1;" edge="1" parent="1" source="OMz8p0DZNnFDRw0FYKge-4" target="OMz8p0DZNnFDRw0FYKge-11">
          <mxGeometry relative="1" as="geometry" />
        </mxCell>
        <mxCell id="OMz8p0DZNnFDRw0FYKge-14" value="否" style="edgeLabel;html=1;align=center;verticalAlign=middle;resizable=0;points=[];" vertex="1" connectable="0" parent="OMz8p0DZNnFDRw0FYKge-12">
          <mxGeometry x="-0.2198" y="3" relative="1" as="geometry">
            <mxPoint x="12" y="-7" as="offset" />
          </mxGeometry>
        </mxCell>
        <mxCell id="OMz8p0DZNnFDRw0FYKge-4" value="密码是否正确" style="strokeWidth=2;html=1;shape=mxgraph.flowchart.decision;whiteSpace=wrap;" vertex="1" parent="1">
          <mxGeometry x="155" y="410" width="110" height="100" as="geometry" />
        </mxCell>
        <mxCell id="OMz8p0DZNnFDRw0FYKge-9" style="edgeStyle=orthogonalEdgeStyle;rounded=0;orthogonalLoop=1;jettySize=auto;html=1;" edge="1" parent="1" source="OMz8p0DZNnFDRw0FYKge-6" target="OMz8p0DZNnFDRw0FYKge-8">
          <mxGeometry relative="1" as="geometry" />
        </mxCell>
        <mxCell id="OMz8p0DZNnFDRw0FYKge-6" value="提示登录成功" style="rounded=1;whiteSpace=wrap;html=1;absoluteArcSize=1;arcSize=14;strokeWidth=2;" vertex="1" parent="1">
          <mxGeometry x="160" y="570" width="100" height="100" as="geometry" />
        </mxCell>
        <mxCell id="OMz8p0DZNnFDRw0FYKge-8" value="结束" style="strokeWidth=2;html=1;shape=mxgraph.flowchart.terminator;whiteSpace=wrap;" vertex="1" parent="1">
          <mxGeometry x="160" y="740" width="100" height="60" as="geometry" />
        </mxCell>
        <mxCell id="OMz8p0DZNnFDRw0FYKge-16" style="edgeStyle=orthogonalEdgeStyle;rounded=0;orthogonalLoop=1;jettySize=auto;html=1;entryX=1;entryY=0.5;entryDx=0;entryDy=0;" edge="1" parent="1" source="OMz8p0DZNnFDRw0FYKge-11" target="OMz8p0DZNnFDRw0FYKge-2">
          <mxGeometry relative="1" as="geometry">
            <Array as="points">
              <mxPoint x="455" y="280" />
            </Array>
          </mxGeometry>
        </mxCell>
        <mxCell id="OMz8p0DZNnFDRw0FYKge-17" value="否" style="edgeLabel;html=1;align=center;verticalAlign=middle;resizable=0;points=[];" vertex="1" connectable="0" parent="OMz8p0DZNnFDRw0FYKge-16">
          <mxGeometry x="-0.5323" y="1" relative="1" as="geometry">
            <mxPoint x="-24" y="-4" as="offset" />
          </mxGeometry>
        </mxCell>
        <mxCell id="OMz8p0DZNnFDRw0FYKge-19" style="edgeStyle=orthogonalEdgeStyle;rounded=0;orthogonalLoop=1;jettySize=auto;html=1;" edge="1" parent="1" source="OMz8p0DZNnFDRw0FYKge-11" target="OMz8p0DZNnFDRw0FYKge-18">
          <mxGeometry relative="1" as="geometry" />
        </mxCell>
        <mxCell id="OMz8p0DZNnFDRw0FYKge-20" value="是" style="edgeLabel;html=1;align=center;verticalAlign=middle;resizable=0;points=[];" vertex="1" connectable="0" parent="OMz8p0DZNnFDRw0FYKge-19">
          <mxGeometry x="0.0889" y="2" relative="1" as="geometry">
            <mxPoint y="-18" as="offset" />
          </mxGeometry>
        </mxCell>
        <mxCell id="OMz8p0DZNnFDRw0FYKge-11" value="是否连续错误3次" style="strokeWidth=2;html=1;shape=mxgraph.flowchart.decision;whiteSpace=wrap;" vertex="1" parent="1">
          <mxGeometry x="400" y="410" width="110" height="100" as="geometry" />
        </mxCell>
        <mxCell id="OMz8p0DZNnFDRw0FYKge-18" value="登录按钮冻结10s，但此时用户可以进行其他操作" style="rounded=1;whiteSpace=wrap;html=1;absoluteArcSize=1;arcSize=14;strokeWidth=2;" vertex="1" parent="1">
          <mxGeometry x="600" y="410" width="100" height="100" as="geometry" />
        </mxCell>
      </root>
    </mxGraphModel>
  </diagram>
</mxfile>
